<svg width="200" height="200" viewBox="0 0 200 200" fill="none" xmlns="http://www.w3.org/2000/svg">
<rect width="200" height="200" fill="#EFDBF4"/>
<g clip-path="url(#clip0_58_2)">
<path d="M87.652 167.368C91.471 169.619 94.4716 168.118 94.4716 163.549V110.425C94.4716 105.856 91.4028 101.287 87.652 99.0362L43.6659 71.6898C39.847 70.1895 36.8464 71.6898 36.8464 75.5087V128.633C36.8464 133.202 39.9152 137.771 43.6659 140.022L87.652 167.368ZM50.4855 54.9819C46.6665 57.2323 46.6665 60.3011 50.4855 62.5516L93.7896 89.898C97.6086 92.1484 102.928 92.1484 106.679 90.6481L149.983 68.621C153.802 66.3705 153.802 63.3017 149.983 61.0513L104.36 33.7049C101.291 31.4544 95.2217 31.4544 91.471 33.7049L50.4855 54.9819ZM106.679 163.549C106.679 168.118 109.747 169.619 113.498 167.368L156.802 145.341C160.621 143.09 163.622 138.521 163.622 133.952V80.7598C163.622 76.1907 160.553 74.6904 156.802 76.9408L113.498 98.968C109.679 101.218 106.679 105.788 106.679 110.357V163.549Z" fill="#C535EC"/>
</g>
<defs>
<clipPath id="clip0_58_2">
<rect width="136.4" height="136.4" fill="white" transform="translate(32 32)"/>
</clipPath>
</defs>
</svg>
