<svg width="200" height="200" viewBox="0 0 200 200" fill="none" xmlns="http://www.w3.org/2000/svg">
<rect width="200" height="200" fill="#EFDBF4"/>
<path d="M100.2 100.2C114.723 100.2 126.541 88.3859 126.541 73.8586C126.541 59.3313 114.723 47.5171 100.2 47.5171C85.6771 47.5171 73.8586 59.3357 73.8586 73.8586C73.8586 88.3814 85.6771 100.2 100.2 100.2ZM51.9074 138.558V140.722C51.9074 151.237 68.6649 152.883 89.4703 152.883H110.93C130.919 152.883 148.493 151.237 148.493 140.722V138.558C148.493 118.446 133.153 104.59 112.62 104.59H87.7757C67.2424 104.59 51.9074 118.441 51.9074 138.558Z" fill="#C7A1D1"/>
</svg>
